<svg id="Component_5_1" data-name="Component 5 – 1" xmlns="http://www.w3.org/2000/svg" xmlns:xlink="http://www.w3.org/1999/xlink" width="1536" height="824" viewBox="0 0 1536 824">
  <defs>
    <clipPath id="clip-path">
      <rect id="Rectangle_2" data-name="Rectangle 2" width="1536" height="824"/>
    </clipPath>
    <linearGradient id="linear-gradient" x1="1" y1="1" x2="0" gradientUnits="objectBoundingBox">
      <stop offset="0" stop-color="#10181b"/>
      <stop offset="1" stop-color="#5f6466"/>
    </linearGradient>
  </defs>
  <g id="Custom_Size_1" data-name="Custom Size – 1" clip-path="url(#clip-path)">
    <rect id="Rectangle_1" data-name="Rectangle 1" width="1536" height="824" fill="#fff"/>
    <rect id="Rectangle_1-2" data-name="Rectangle 1" width="1536" height="824" fill="url(#linear-gradient)"/>
    
  </g>
  <g id="CMRIT_logo" data-name="CMRIT logo" transform="translate(69.44 82.408)">
    <path id="IOT" d="M232.542,265.606l-.808-.12V248.311h-2.156c-1.916,0-2.156-.083-2.156-.749,0-.716.24-.749,5.416-.749,4.964,0,5.406.055,5.3.655-.1.526-.563.677-2.355.767l-2.235.111-.1,8.69-.1,8.69Zm7.964-.036c-.082-.086-.15-4.341-.15-9.456v-9.3h4.517c4.109,0,4.506.059,4.4.655-.1.558-.613.671-3.439.763l-3.319.108v6.684l3.14.108c2.656.091,3.158.209,3.26.764.107.585-.229.655-3.14.655h-3.26v7.865h3.413c3.011,0,3.413.077,3.413.655s-.446.655-4.341.655a34.631,34.631,0,0,1-4.491-.156Zm15.463-.354c-2.819-1.792-3.874-4.371-3.874-9.473,0-5.876,2.348-9.119,6.583-9.092,3.04.02,4.956,1.409,5.593,4.055.22.916.156.975-1.062.975-.931,0-1.3-.163-1.3-.58a3.866,3.866,0,0,0-2.128-3.1c-3.837-1.394-6.509,3.667-5.437,10.3.7,4.3,2.31,6.241,5.191,6.241a7.014,7.014,0,0,0,2.721-.624c1.493-.776,1.449-.781,1.449.144,0,1.738-5.525,2.563-7.74,1.156Zm11.333-8.946v-9.456h.886c.884,0,.887.012.988,4.213l.1,4.213,7.365.214v-8.64H278.8V265.45l-.89.177a1.744,1.744,0,0,1-1.078-.019,31.056,31.056,0,0,1-.188-4.628v-4.432H269.1v9.176h-1.8Zm16.167.031v-9.487h2.521l3.646,7.865a72.872,72.872,0,0,0,3.949,7.865c.167,0,.3-3.539.3-7.865v-7.865h1.617l-.1,9.363c-.076,7.026-.211,9.37-.539,9.392a10.8,10.8,0,0,0-1.1.159c-.538.106-1.367-1.368-4.491-7.987l-3.831-8.117-.18,8.021c-.179,7.99-.183,8.022-.988,8.083l-.808.062V256.3Zm19.505,8.877c-3.379-2.148-4.74-9.522-2.661-14.421,1.867-4.4,7.028-5.606,10.076-2.356,1.645,1.754,2.292,4.457,2.12,8.857-.162,4.149-1.037,6.325-3.136,7.8a6.642,6.642,0,0,1-6.4.121Zm5.43-1.53c1.6-1.461,2.159-3.9,1.95-8.45-.188-4.1-.978-6.029-2.855-6.986a2.642,2.642,0,0,0-2.695-.187c-1.11.378-1.562.824-2.21,2.185-1.048,2.2-1.423,6.8-.806,9.887.871,4.362,3.934,6.007,6.616,3.552Zm8.118-7.378v-9.456h2.19l-.112,17.415,3.093.108c2.639.092,3.092.2,3.092.749,0,.568-.472.641-4.132.641h-4.132Zm13.731,9.021c-2.358-1.211-3.671-4.4-3.671-8.927,0-4.956,1.553-8.213,4.47-9.374a5.382,5.382,0,0,1,6.38,1.355c1.519,1.665,2.029,3.177,2.324,6.9.237,2.979-.5,6.71-1.672,8.419C336.629,265.79,332.786,266.59,330.254,265.29Zm5.512-1.81c2.212-2.445,2.638-9.5.8-13.238-1.65-3.35-5.293-3.283-6.928.128-.6,1.248-.719,2.247-.719,5.992,0,5.009.543,6.872,2.293,7.864a3.357,3.357,0,0,0,4.555-.746Zm10.931,1.738c-2.752-1.526-4.224-5.58-3.834-10.556.241-3.065,1.095-5.334,2.458-6.53,2.853-2.5,7.906-1.958,9.659,1.04,1.02,1.744.923,2.51-.319,2.51-.861,0-1.113-.239-1.591-1.506-1.089-2.891-4.456-3.264-6.509-.72-1.808,2.239-2.133,8.57-.623,12.128.966,2.276,2.547,3.3,4.795,3.095,2.6-.233,2.8-.553,2.8-4.617V256.55h-2.122c-1.945,0-2.106-.062-1.934-.749s.49-.749,3.2-.749h3.012v9.4l-1.527.723c-2.05.97-5.752.992-7.461.045Zm16.532-3.872v-4.192l-2.695-5c-1.482-2.748-2.695-5.075-2.695-5.171s.457-.175,1.016-.175c.917,0,1.222.384,3.124,3.932a24.556,24.556,0,0,0,2.366,3.932,24.42,24.42,0,0,0,2.355-3.926c1.867-3.5,2.2-3.927,3.085-3.932.543,0,.988.065.988.153s-1.293,2.419-2.874,5.181l-2.874,5.022v8.365h-1.8Zm-109.759-27.2c-.861-.209-1.085-.469-1.114-1.288a3.315,3.315,0,0,1,.045-1.027c.044,0,.768.253,1.608.562,3.013,1.108,5.62.445,6.449-1.64.863-2.171-.043-3.527-3.8-5.689-3.283-1.889-4.445-3.265-4.445-5.264,0-3.282,1.872-4.821,5.863-4.821,2.891,0,3.478.221,3.478,1.31,0,.854,0,.854-1.864.286-2.3-.7-4.058-.327-5.064,1.087-1.389,1.951-.45,3.348,4.065,6.045,3.271,1.955,4.129,3.094,4.1,5.441a4.462,4.462,0,0,1-2.574,4.386,13.625,13.625,0,0,1-6.743.614Zm44.4-.16c-2.725-1.046-3.247-2.964-3.259-11.986l-.009-6.648h2.156v7.4c0,6.671.07,7.514.7,8.593a3.619,3.619,0,0,0,4.765,1.45c2.021-1,2.21-1.8,2.364-10.043l.138-7.4h1.731v7.4c0,8.078-.226,9.178-2.19,10.677-1.175.9-4.713,1.207-6.4.56Zm47.359.109c-1.756-.555-2.827-1.592-3.815-3.7-.866-1.846-.991-2.552-1-5.674-.007-3.222.1-3.783,1.07-5.813,1.411-2.943,2.813-3.932,5.569-3.932,2.532,0,4.1.984,5.389,3.385.825,1.534.9,2.054.9,6.352,0,4.471-.046,4.763-1.022,6.495A5.843,5.843,0,0,1,345.234,234.1Zm3.886-1.731c1.77-1.193,2.6-4.755,2.218-9.528-.363-4.551-1.856-6.734-4.6-6.734-2.678,0-4.159,3.136-4.154,8.8,0,3.129.137,4.031.819,5.484,1.284,2.738,3.471,3.494,5.721,1.977Zm-119.179-7.649v-9.363h1.8v18.726h-1.8Zm6.826-.112V215.13l1.21.147c1.189.145,1.274.282,4.94,8.071l3.73,7.923.1-8.092.1-8.092,1.783.355v18.638h-2.38l-3.7-7.865a70.45,70.45,0,0,0-4.02-7.865c-.174,0-.317,3.539-.317,7.865,0,7.615-.09,8.009-.786,8.009s-.651-.394-.651-9.619Zm31.616.674v-8.8h-2.156c-1.643,0-2.156-.129-2.156-.543,0-.444.95-.563,5.21-.655,4.764-.1,5.21-.057,5.21.543,0,.551-.343.655-2.156.655H270.18v17.6h-1.8Zm8.623-.562v-9.363h2.156v18.726h-2.156Zm8.982.562v-8.8h-2.156c-1.677,0-2.156-.125-2.156-.562,0-.474.838-.562,5.389-.562,4.472,0,5.389.093,5.389.544,0,.4-.563.573-2.183.655l-2.182.112.039,8.707.039,8.707h-2.18Zm27.305,0v-8.8h-2.156c-1.813,0-2.156-.1-2.156-.655,0-.594.488-.655,5.21-.655s5.21.061,5.21.655c0,.551-.342.655-2.156.655H315.09v17.6h-1.8Zm8.623-.655v-9.456h4.311c3.866,0,4.311.068,4.311.655s-.394.655-3.233.655h-3.234v7.116h3.054c2.669,0,3.054.083,3.055.655s-.34.642-3.054.534l-3.055-.121v7.92h3.413c3.174,0,3.413.053,3.413.749s-.24.749-4.491.749h-4.491Zm35.568.116V215.4l4.312-.116c3.91-.1,4.312-.054,4.311.54,0,.576-.395.655-3.234.655H359.64v7.116h3.054c2.475,0,3.054.106,3.054.562s-.579.562-3.054.562H359.64v9.363h-2.156Z" transform="translate(-51.139 -60.567)" fill="#9ac112" stroke="#9ac112" stroke-linecap="square" stroke-width="1.5"/>
    <path id="CMR" d="M91.186,266.128a24.148,24.148,0,0,1-8.494-3.335c-2.2-1.419-5.526-4.61-6.341-6.081a3.653,3.653,0,0,0-.6-.83,21.249,21.249,0,0,1-1.432-2.892c-3.51-7.961-3.463-18.306.114-25.354a28.538,28.538,0,0,1,4.659-6.456c4.858-4.037,7.818-5.477,13.515-6.571,3.6-.691,13.439.053,14.483,1.095.377.377-.4,7.8-.877,8.324-.174.194-1.535.051-3.167-.333-6.3-1.48-11.215-.3-15.19,3.653-5.479,5.443-6.7,13.555-3.165,21.1,1.019,2.178.968,2.1,3.055,4.464a13.64,13.64,0,0,0,4.46,3.205c2.789,1.34,2.881,1.355,6.983,1.2a31.872,31.872,0,0,0,5.509-.577c3.322-1.039,3-1.169,3.279,1.32.14,1.24.389,3.066.554,4.059.353,2.12.263,2.293-1.516,2.908a33.677,33.677,0,0,1-15.833,1.1Zm23.557-.849c0-.538,2.335-16.082,3.469-23.085.377-2.333.536-3.353,2.7-17.351.655-4.241,1.282-8.28,1.393-8.974l.2-1.263,5.832.106,5.832.106.736,2.313c.4,1.272,2.545,7.866,4.756,14.652,4.1,12.593,5.59,17.677,5.59,19.1,0,1.465.635.436,1.129-1.83.466-2.136,3.957-13.346,4.658-14.959.184-.424,1.4-4.068,2.709-8.1s2.522-7.673,2.7-8.1.487-1.292.68-1.928l.35-1.157h11.462l.676,4.048c.617,3.694,1.351,8.336,3.475,21.978.413,2.651.917,5.861,1.12,7.133s.636,4.049.963,6.169.759,4.9.962,6.169.477,3.051.609,3.952l.24,1.639h-5.247c-3.1,0-5.247-.152-5.247-.371,0-.2-.528-3.891-1.173-8.193-1.766-11.776-3.382-22.974-3.677-25.48a5.439,5.439,0,0,0-.431-2.068,38.7,38.7,0,0,0-1.128,3.97c-.841,3.329-3.829,13.2-5.35,17.683-.288.848-1.444,4.453-2.568,8.011l-2.044,6.469-9.9-.214-2.638-7.9c-6.047-18.117-8.147-25.095-8.157-27.109,0-.384-.177-.59-.39-.459a2.373,2.373,0,0,0-.386,1.553c0,.723-.422,4.66-.937,8.749s-1.426,11.468-2.023,16.4l-1.086,8.964h-4.928c-4.294,0-4.928-.081-4.928-.627Zm70.284-24.96V214.734l2.027-.243c1.115-.134,4.982-.241,8.592-.239,6.919,0,11.424.566,14.635,1.825a14.615,14.615,0,0,1,6.7,6c.96,1.83,1.047,2.365,1.054,6.43.007,4.123-.069,4.578-1.078,6.492a15.623,15.623,0,0,1-9.986,7.652c-1.6.32-1.672.73-.4,2.346.624.791,4.277,5.82,8.118,11.175l6.983,9.736H209.438l-3.6-5.3c-1.979-2.916-5.147-7.6-7.04-10.41a38.422,38.422,0,0,0-3.78-5.109c-.186,0-.338,4.685-.338,10.41v10.41h-9.654Zm15.9-2.923c4.371-.715,7.025-3.656,6.987-7.74-.047-5.009-3.467-7.5-9.95-7.248l-3.089.12-.1,7.392c-.1,6.8-.05,7.407.579,7.57a15.474,15.474,0,0,0,5.578-.1Z" transform="translate(-54.259 -61.347)" fill="#9ac112"/>
    <path id="Logo" d="M44.561,205.676c-8.848-.629-17.45-3.562-21.713-7.4s-6.941-8.938-6.987-13.3l-.011-1.111,1.617,1.812c6.828,7.648,18.466,10.914,32.4,9.089,3.616-.473,8.979-1.582,17.762-3.673A116.535,116.535,0,0,1,93.249,187.9l6.912-.2-1.656-.9a61.744,61.744,0,0,0-9.91-3.572c-2.184-.579-9.412-2.274-11.13-2.611-9.346-1.833-22.78-5.079-28.873-6.977-10.529-3.279-16.9-6.632-21.614-11.369a17.5,17.5,0,0,1-4.8-7.668c-.285-1.182.01-1.12,1.838.387,8.215,6.778,14.52,8.781,39.092,12.419,1.952.289,5.654.89,8.226,1.336,7.188,1.245,12.058,1.971,20.317,3.027,4.166.533,8.506,1.184,9.645,1.448a8.815,8.815,0,0,0,2.2.351c.071-.071-.567-.63-1.418-1.242-4.368-3.141-9.488-5.6-18.323-8.786a124.874,124.874,0,0,0-13.873-4.311c-9.315-2.553-13.492-4.056-19.355-6.961A44.207,44.207,0,0,1,34.216,139.14c-2.788-3.695-6.865-12.482-5.791-12.482a8.652,8.652,0,0,1,1.826,1.691c6.687,7.329,11.98,11.129,20.507,14.726,6.269,2.643,12.121,4.279,23.642,6.609,21.385,4.325,44.5,13.544,59.2,23.613,9.436,6.464,17.257,14.791,21.541,22.934,1.83,3.479,3.5,7.634,3.2,7.939-.113.113-5.181.035-11.262-.174-19.293-.662-34.416-.785-48-.39-12.706.369-33.459,1.348-41.616,1.964a108.549,108.549,0,0,1-12.9.108ZM165.7,203.4c3.25-12.677,3.618-22.952,1.27-35.439a100.286,100.286,0,0,0-10.237-28.523c-3.137-6-5.861-10.248-11.71-18.253-11.589-15.859-15.034-21.06-18.029-27.217-2.49-5.119-3.156-7.638-3.152-11.918.005-5.779,1.577-9.721,5.4-13.538a16.812,16.812,0,0,1,12.638-5.3,19.4,19.4,0,0,1,14.147,5.87,18.28,18.28,0,0,1,4.418,8.025c.659,2.093.744,3.013.744,8,0,6.339-.073,6.618-3.162,12a40.262,40.262,0,0,0-3.63,11.6c-.12.841-.336,1.53-.48,1.53a4.2,4.2,0,0,1-.888-1.691c-1.278-3.458-1.459-4.96-1.27-10.535.138-4.086.072-5.752-.283-7.1-.255-.972-.762-4.086-1.126-6.921-.89-6.934-1.41-9.294-2.568-11.665-1.629-3.334-4.271-4.923-8.186-4.923-3.6,0-5.773,1.12-7.764,4.006-2.336,3.387-3.049,8.4-1.907,13.415,1.686,7.4,9.236,17.384,25.305,33.457a86.694,86.694,0,0,1,9.686,11.008c7.308,9.777,12.279,20.335,14.168,30.092a54.608,54.608,0,0,1-.168,20.618,53.5,53.5,0,0,1-7.154,16.406c-1.893,2.866-5.788,7.891-6.117,7.891-.094,0-.068-.4.057-.886Zm-46.773-49.032c-6.2-3.127-9.711-4.508-21.776-8.568-13.711-4.613-14.793-5-20.374-7.239-10.54-4.232-15.637-7.3-21.758-13.082a51.876,51.876,0,0,1-12.87-20.533c-1.2-3.664-1.719-6.014-1.211-5.5.176.177,1.623,1.844,3.215,3.7C56.121,117.129,68.29,125.316,92.7,135.8c13.434,5.773,14.52,6.266,17.183,7.8,5.722,3.3,11.825,8.638,13.409,11.738a4.87,4.87,0,0,1,.578,1.4c-.057.036-2.281-1.033-4.942-2.375Zm8.872-8.357a63.215,63.215,0,0,0-14.954-11.163c-12.43-6.82-22.24-12.683-26.712-15.967a56.7,56.7,0,0,1-9.467-9.786c-3.613-5.044-7.446-14.12-9.026-21.371-.45-2.064-1.448-9.1-1.456-10.263-.006-.915.566-.278,1.563,1.741a141.261,141.261,0,0,0,8.2,13.479A87.583,87.583,0,0,0,97.26,114.594c8.889,6.687,17.662,13.408,20.535,15.732,6.333,5.125,11.319,11.571,13.224,17.1.357,1.035.648,1.931.648,1.992,0,.4-.884-.376-3.871-3.408Zm11.2-4.292c-4.324-6.58-13.124-16.527-23.9-27.018-9.836-9.576-14.3-14.93-17.137-20.572a32.411,32.411,0,0,1-3.64-17.115c.14-4.018.954-8.652,1.519-8.652a9.915,9.915,0,0,1,.984,2.657c2.961,10.341,9,19.981,22.062,35.186,8.926,10.394,15.83,19.817,18.724,25.553a34.049,34.049,0,0,1,3.323,10.394,6.683,6.683,0,0,1,0,2.224A18.411,18.411,0,0,1,139,141.714Z" transform="translate(-15.85 -63.208)" fill="#619ed2" stroke="#619ed2" stroke-width="1"/>
  </g>
</svg>
